<svg width="620" height="178" viewBox="0 0 620 178" fill="none" xmlns="http://www.w3.org/2000/svg">
<rect width="620" height="178" fill="Transparent"/>
<g filter="url(#filter0_d_0_1)">
<g filter="url(#filter1_d_0_1)">
<mask id="path-1-outside-1_0_1" maskUnits="userSpaceOnUse" x="44" y="44.2306" width="70" height="90" fill="black">
<rect fill="white" x="44" y="44.2306" width="70" height="90"/>
<path fill-rule="evenodd" clip-rule="evenodd" d="M67.8984 61.879V105.004H90.2812V61.879H111.258V47.2306H47V61.879H67.8984ZM90.2813 131.1L90.2813 105.011H67.8437C67.3437 105.011 90.2813 131.1 90.2813 131.1Z"/>
</mask>
<path fill-rule="evenodd" clip-rule="evenodd" d="M67.8984 61.879V105.004H90.2812V61.879H111.258V47.2306H47V61.879H67.8984ZM90.2813 131.1L90.2813 105.011H67.8437C67.3437 105.011 90.2813 131.1 90.2813 131.1Z" fill="black"/>
<path d="M67.8984 105.004H65.6984C65.6984 106.219 66.6834 107.204 67.8984 107.204V105.004ZM67.8984 61.879H70.0984C70.0984 60.664 69.1135 59.679 67.8984 59.679V61.879ZM90.2812 105.004V107.204C91.4963 107.204 92.4813 106.219 92.4813 105.004H90.2812ZM90.2812 61.879V59.679C89.0662 59.679 88.0812 60.664 88.0812 61.879H90.2812ZM111.258 61.879V64.079C112.473 64.079 113.458 63.094 113.458 61.879H111.258ZM111.258 47.2306H113.458C113.458 46.0155 112.473 45.0306 111.258 45.0306V47.2306ZM47 47.2306V45.0306C45.785 45.0306 44.8 46.0155 44.8 47.2306H47ZM47 61.879H44.8C44.8 63.094 45.785 64.079 47 64.079V61.879ZM90.2813 105.011L92.4813 105.011C92.4813 104.427 92.2496 103.868 91.837 103.455C91.4244 103.042 90.8648 102.811 90.2813 102.811V105.011ZM90.2813 131.1L88.6291 132.553C89.2337 133.24 90.2009 133.482 91.0576 133.159C91.9143 132.836 92.4813 132.016 92.4813 131.1L90.2813 131.1ZM70.0984 105.004V61.879H65.6984V105.004H70.0984ZM90.2812 102.804H67.8984V107.204H90.2812V102.804ZM88.0812 61.879V105.004H92.4813V61.879H88.0812ZM111.258 59.679H90.2812V64.079H111.258V59.679ZM109.058 47.2306V61.879H113.458V47.2306H109.058ZM47 49.4306H111.258V45.0306H47V49.4306ZM49.2 61.879V47.2306H44.8V61.879H49.2ZM67.8984 59.679H47V64.079H67.8984V59.679ZM88.0813 105.011L88.0813 131.1L92.4813 131.1L92.4813 105.011L88.0813 105.011ZM67.8437 107.211H90.2813V102.811H67.8437V107.211ZM90.2813 131.1C91.9336 129.647 91.9335 129.647 91.9333 129.647C91.9332 129.647 91.9329 129.647 91.9326 129.646C91.9319 129.646 91.9308 129.644 91.9295 129.643C91.9267 129.64 91.9226 129.635 91.9171 129.629C91.9061 129.616 91.8897 129.598 91.868 129.573C91.8247 129.524 91.7605 129.451 91.6766 129.355C91.5089 129.164 91.263 128.884 90.9501 128.528C90.3243 127.815 89.4307 126.796 88.36 125.574C86.2184 123.129 83.3687 119.87 80.5351 116.612C77.7003 113.352 74.8865 110.098 72.8146 107.662C71.7767 106.441 70.935 105.438 70.3721 104.745C70.0863 104.393 69.8933 104.147 69.7856 104C69.7217 103.913 69.7311 103.92 69.7654 103.979C69.7772 103.999 69.8016 104.042 69.83 104.101C69.8527 104.148 69.9108 104.273 69.9583 104.445C69.9792 104.521 70.1417 105.065 69.9206 105.72C69.784 106.124 69.5016 106.56 69.0238 106.866C68.5744 107.153 68.1296 107.211 67.8437 107.211V102.811C67.5539 102.811 67.106 102.869 66.6541 103.158C66.1738 103.465 65.8896 103.904 65.752 104.311C65.5287 104.972 65.6919 105.525 65.7163 105.614C65.8016 105.923 65.9405 106.154 65.9628 106.192C66.0546 106.35 66.1644 106.503 66.241 106.607C66.4144 106.843 66.6629 107.157 66.9565 107.519C67.5523 108.252 68.4206 109.287 69.4628 110.512C71.551 112.968 74.3779 116.237 77.2149 119.499C80.0533 122.763 82.9067 126.026 85.0503 128.473C86.1222 129.697 87.0167 130.717 87.6434 131.43C87.9567 131.787 88.203 132.068 88.3711 132.259C88.4551 132.355 88.5196 132.428 88.5631 132.478C88.5848 132.502 88.6013 132.521 88.6124 132.534C88.6179 132.54 88.6221 132.545 88.6249 132.548C88.6263 132.55 88.6273 132.551 88.628 132.552C88.6284 132.552 88.6287 132.552 88.6288 132.552C88.629 132.553 88.6291 132.553 90.2813 131.1Z" fill="white" mask="url(#path-1-outside-1_0_1)"/>
</g>
<g filter="url(#filter2_d_0_1)">
<mask id="path-3-outside-2_0_1" maskUnits="userSpaceOnUse" x="115.226" y="42" width="463" height="66" fill="black">
<rect fill="white" x="115.226" y="42" width="463" height="66"/>
<path d="M161.82 46.2266C166.846 46.2266 170.869 46.474 173.89 46.9688C176.911 47.4375 179.268 48.1797 180.96 49.1953C183.122 50.4714 184.762 52.1901 185.882 54.3516C187.028 56.487 187.601 58.9609 187.601 61.7734C187.601 65.1849 186.755 68.1927 185.062 70.7969C183.369 73.375 181.038 75.237 178.07 76.3828C180.622 77.4505 182.406 78.7786 183.421 80.3672C184.463 81.9297 185.075 84.7031 185.257 88.6875C185.283 89.1302 185.309 89.7422 185.335 90.5234C185.7 98.0755 186.716 102.268 188.382 103.102V104H163.499C162.744 102.776 162.328 100.406 162.249 96.8906C162.197 94.8333 162.106 93.2448 161.976 92.125C161.742 90.0156 161.025 88.5313 159.828 87.6719C158.656 86.8125 156.676 86.3828 153.89 86.3828H140.531V104H117.835V46.2266H161.82ZM140.531 71.1875H153.578C156.989 71.1875 159.385 70.7839 160.765 69.9766C162.171 69.1693 162.874 67.8151 162.874 65.9141C162.874 64.0391 162.21 62.737 160.882 62.0078C159.58 61.2526 156.963 60.875 153.031 60.875H140.531V71.1875ZM217.835 75.1328C217.835 80.1589 219.098 84 221.624 86.6563C224.176 89.3125 227.848 90.6406 232.64 90.6406C237.432 90.6406 241.091 89.3125 243.617 86.6563C246.169 84 247.445 80.1589 247.445 75.1328C247.445 70.0807 246.169 66.2135 243.617 63.5313C241.091 60.849 237.432 59.5078 232.64 59.5078C227.848 59.5078 224.176 60.849 221.624 63.5313C219.098 66.2135 217.835 70.0807 217.835 75.1328ZM193.773 75.1328C193.773 65.0807 197.041 57.5026 203.578 52.3984C210.114 47.2682 219.801 44.7031 232.64 44.7031C245.479 44.7031 255.166 47.2682 261.703 52.3984C268.239 57.5026 271.507 65.0807 271.507 75.1328C271.507 85.1589 268.239 92.737 261.703 97.8672C255.166 102.971 245.479 105.523 232.64 105.523C219.801 105.523 210.114 102.971 203.578 97.8672C197.041 92.737 193.773 85.1589 193.773 75.1328ZM280.726 104V46.2266H307.21L329.515 79.5078V46.2266H351.195V104H326.078L301.82 70.1719V104H280.726ZM363.851 104V46.2266H425.062V60.4063H386.234V67.2813H417.679V81.5391H386.234V89.1172H426.976V104H363.851ZM434.085 104V46.2266H460.57L482.874 79.5078V46.2266H504.554V104H479.437L455.179 70.1719V104H434.085ZM531.937 104V60.875H511.038V46.2266H575.296V60.875H554.32V104H531.937Z"/>
</mask>
<path d="M161.82 46.2266C166.846 46.2266 170.869 46.474 173.89 46.9688C176.911 47.4375 179.268 48.1797 180.96 49.1953C183.122 50.4714 184.762 52.1901 185.882 54.3516C187.028 56.487 187.601 58.9609 187.601 61.7734C187.601 65.1849 186.755 68.1927 185.062 70.7969C183.369 73.375 181.038 75.237 178.07 76.3828C180.622 77.4505 182.406 78.7786 183.421 80.3672C184.463 81.9297 185.075 84.7031 185.257 88.6875C185.283 89.1302 185.309 89.7422 185.335 90.5234C185.7 98.0755 186.716 102.268 188.382 103.102V104H163.499C162.744 102.776 162.328 100.406 162.249 96.8906C162.197 94.8333 162.106 93.2448 161.976 92.125C161.742 90.0156 161.025 88.5313 159.828 87.6719C158.656 86.8125 156.676 86.3828 153.89 86.3828H140.531V104H117.835V46.2266H161.82ZM140.531 71.1875H153.578C156.989 71.1875 159.385 70.7839 160.765 69.9766C162.171 69.1693 162.874 67.8151 162.874 65.9141C162.874 64.0391 162.21 62.737 160.882 62.0078C159.58 61.2526 156.963 60.875 153.031 60.875H140.531V71.1875ZM217.835 75.1328C217.835 80.1589 219.098 84 221.624 86.6563C224.176 89.3125 227.848 90.6406 232.64 90.6406C237.432 90.6406 241.091 89.3125 243.617 86.6563C246.169 84 247.445 80.1589 247.445 75.1328C247.445 70.0807 246.169 66.2135 243.617 63.5313C241.091 60.849 237.432 59.5078 232.64 59.5078C227.848 59.5078 224.176 60.849 221.624 63.5313C219.098 66.2135 217.835 70.0807 217.835 75.1328ZM193.773 75.1328C193.773 65.0807 197.041 57.5026 203.578 52.3984C210.114 47.2682 219.801 44.7031 232.64 44.7031C245.479 44.7031 255.166 47.2682 261.703 52.3984C268.239 57.5026 271.507 65.0807 271.507 75.1328C271.507 85.1589 268.239 92.737 261.703 97.8672C255.166 102.971 245.479 105.523 232.64 105.523C219.801 105.523 210.114 102.971 203.578 97.8672C197.041 92.737 193.773 85.1589 193.773 75.1328ZM280.726 104V46.2266H307.21L329.515 79.5078V46.2266H351.195V104H326.078L301.82 70.1719V104H280.726ZM363.851 104V46.2266H425.062V60.4063H386.234V67.2813H417.679V81.5391H386.234V89.1172H426.976V104H363.851ZM434.085 104V46.2266H460.57L482.874 79.5078V46.2266H504.554V104H479.437L455.179 70.1719V104H434.085ZM531.937 104V60.875H511.038V46.2266H575.296V60.875H554.32V104H531.937Z" fill="black"/>
<path d="M173.89 46.9688L173.534 49.1398C173.541 49.1408 173.547 49.1418 173.553 49.1427L173.89 46.9688ZM180.96 49.1953L179.828 51.0818C179.833 51.0845 179.837 51.0872 179.842 51.0898L180.96 49.1953ZM185.882 54.3516L183.929 55.3636C183.934 55.373 183.939 55.3824 183.944 55.3918L185.882 54.3516ZM185.062 70.7969L186.901 72.0043L186.906 71.9958L185.062 70.7969ZM178.07 76.3828L177.278 74.3304C176.44 74.6538 175.882 75.4541 175.87 76.3521C175.857 77.2502 176.392 78.0657 177.221 78.4124L178.07 76.3828ZM183.421 80.3672L181.568 81.5522C181.575 81.5641 181.583 81.5758 181.591 81.5875L183.421 80.3672ZM185.257 88.6875L183.06 88.788C183.06 88.7976 183.06 88.8071 183.061 88.8167L185.257 88.6875ZM185.335 90.5234L183.137 90.5967C183.137 90.6077 183.137 90.6186 183.138 90.6295L185.335 90.5234ZM188.382 103.102H190.582C190.582 102.268 190.111 101.506 189.366 101.134L188.382 103.102ZM188.382 104V106.2C189.597 106.2 190.582 105.215 190.582 104H188.382ZM163.499 104L161.627 105.155C162.028 105.805 162.736 106.2 163.499 106.2V104ZM162.249 96.8906L164.449 96.8417L164.449 96.8349L162.249 96.8906ZM161.976 92.125L159.789 92.368L159.791 92.3791L161.976 92.125ZM159.828 87.6719L158.527 89.446C158.533 89.4505 158.539 89.455 158.545 89.4595L159.828 87.6719ZM140.531 86.3828V84.1828C139.316 84.1828 138.331 85.1678 138.331 86.3828H140.531ZM140.531 104V106.2C141.746 106.2 142.731 105.215 142.731 104H140.531ZM117.835 104H115.635C115.635 105.215 116.62 106.2 117.835 106.2V104ZM117.835 46.2266V44.0266C116.62 44.0266 115.635 45.0115 115.635 46.2266H117.835ZM140.531 71.1875H138.331C138.331 72.4025 139.316 73.3875 140.531 73.3875V71.1875ZM160.765 69.9766L159.67 68.0686C159.665 68.0716 159.659 68.0745 159.654 68.0775L160.765 69.9766ZM160.882 62.0078L159.778 63.9109C159.793 63.9195 159.808 63.928 159.823 63.9363L160.882 62.0078ZM140.531 60.875V58.675C139.316 58.675 138.331 59.66 138.331 60.875H140.531ZM161.82 48.4266C166.792 48.4266 170.682 48.6725 173.534 49.1398L174.246 44.7977C171.057 44.2754 166.9 44.0266 161.82 44.0266V48.4266ZM173.553 49.1427C176.43 49.5893 178.476 50.2702 179.828 51.0818L182.092 47.3088C180.059 46.0892 177.391 45.2857 174.227 44.7948L173.553 49.1427ZM179.842 51.0898C181.659 52.1628 183.005 53.5806 183.929 55.3636L187.836 53.3396C186.52 50.7996 184.584 48.7799 182.079 47.3008L179.842 51.0898ZM183.944 55.3918C184.892 57.1594 185.401 59.2653 185.401 61.7734H189.801C189.801 58.6565 189.164 55.8146 187.821 53.3114L183.944 55.3918ZM185.401 61.7734C185.401 64.8028 184.655 67.3854 183.217 69.5979L186.906 71.9958C188.854 69 189.801 65.567 189.801 61.7734H185.401ZM183.223 69.5894C181.791 71.7706 179.832 73.3444 177.278 74.3304L178.862 78.4352C182.245 77.1296 184.948 74.9794 186.901 72.0043L183.223 69.5894ZM177.221 78.4124C179.543 79.384 180.882 80.4793 181.568 81.5522L185.275 79.1821C183.93 77.078 181.701 75.517 178.919 74.3533L177.221 78.4124ZM181.591 81.5875C182.273 82.6102 182.879 84.8464 183.06 88.788L187.455 88.587C187.271 84.5599 186.653 81.2491 185.252 79.1468L181.591 81.5875ZM183.061 88.8167C183.085 89.2319 183.111 89.8224 183.137 90.5967L187.534 90.4501C187.508 89.662 187.481 89.0285 187.453 88.5583L183.061 88.8167ZM183.138 90.6295C183.323 94.4575 183.676 97.5543 184.232 99.85C184.51 100.996 184.858 102.03 185.313 102.882C185.757 103.714 186.41 104.575 187.398 105.069L189.366 101.134C189.521 101.211 189.422 101.236 189.195 100.811C188.98 100.407 188.739 99.7643 188.509 98.8141C188.049 96.917 187.713 94.1414 187.533 90.4174L183.138 90.6295ZM186.182 103.102V104H190.582V103.102H186.182ZM188.382 101.8H163.499V106.2H188.382V101.8ZM165.372 102.845C165.206 102.577 164.975 101.994 164.787 100.924C164.605 99.886 164.486 98.5341 164.449 96.8417L160.05 96.9395C160.09 98.7628 160.22 100.354 160.454 101.686C160.682 102.985 161.037 104.199 161.627 105.155L165.372 102.845ZM164.449 96.8349C164.396 94.7558 164.303 93.0895 164.161 91.8709L159.791 92.3791C159.909 93.4001 159.999 94.9109 160.05 96.9463L164.449 96.8349ZM164.163 91.8821C163.89 89.4311 163.004 87.2434 161.11 85.8843L158.545 89.4595C159.046 89.8191 159.593 90.6001 159.789 92.3679L164.163 91.8821ZM161.129 85.8978C159.364 84.6041 156.779 84.1828 153.89 84.1828V88.5828C156.574 88.5828 157.947 89.0209 158.527 89.446L161.129 85.8978ZM153.89 84.1828H140.531V88.5828H153.89V84.1828ZM138.331 86.3828V104H142.731V86.3828H138.331ZM140.531 101.8H117.835V106.2H140.531V101.8ZM120.035 104V46.2266H115.635V104H120.035ZM117.835 48.4266H161.82V44.0266H117.835V48.4266ZM140.531 73.3875H153.578V68.9875H140.531V73.3875ZM153.578 73.3875C157.029 73.3875 159.949 73.0027 161.876 71.8756L159.654 68.0775C158.821 68.5651 156.949 68.9875 153.578 68.9875V73.3875ZM161.86 71.8845C164.079 70.6106 165.074 68.4413 165.074 65.9141H160.674C160.674 67.1889 160.263 67.728 159.67 68.0686L161.86 71.8845ZM165.074 65.9141C165.074 63.4612 164.15 61.2923 161.941 60.0793L159.823 63.9363C160.27 64.1817 160.674 64.6169 160.674 65.9141H165.074ZM161.986 60.1047C160.973 59.5174 159.665 59.184 158.257 58.9807C156.807 58.7716 155.057 58.675 153.031 58.675V63.075C154.937 63.075 156.461 63.1672 157.629 63.3357C158.837 63.51 159.489 63.743 159.778 63.9109L161.986 60.1047ZM153.031 58.675H140.531V63.075H153.031V58.675ZM138.331 60.875V71.1875H142.731V60.875H138.331ZM221.624 86.6563L220.03 88.1723L220.038 88.1805L221.624 86.6563ZM243.617 86.6563L242.03 85.132L242.022 85.1402L243.617 86.6563ZM243.617 63.5313L242.015 65.0396L242.023 65.0477L243.617 63.5313ZM221.624 63.5313L220.031 62.0148L220.023 62.023L221.624 63.5313ZM203.578 52.3984L204.932 54.1324L204.936 54.1291L203.578 52.3984ZM261.703 52.3984L260.344 54.1291L260.349 54.1324L261.703 52.3984ZM261.703 97.8672L263.057 99.6012L263.061 99.5978L261.703 97.8672ZM203.578 97.8672L202.219 99.5978L202.224 99.6012L203.578 97.8672ZM215.635 75.1328C215.635 80.5106 216.99 84.9754 220.03 88.1723L223.219 85.1402C221.207 83.0246 220.035 79.8071 220.035 75.1328H215.635ZM220.038 88.1805C223.12 91.388 227.439 92.8406 232.64 92.8406V88.4406C228.258 88.4406 225.233 87.237 223.211 85.132L220.038 88.1805ZM232.64 92.8406C237.84 92.8406 242.152 91.3884 245.211 88.1723L242.022 85.1402C240.029 87.2366 237.023 88.4406 232.64 88.4406V92.8406ZM245.203 88.1805C248.274 84.9841 249.645 80.5162 249.645 75.1328H245.245C245.245 79.8015 244.063 83.0159 242.03 85.132L245.203 88.1805ZM249.645 75.1328C249.645 69.7255 248.275 65.236 245.21 62.0148L242.023 65.0477C244.062 67.1911 245.245 70.436 245.245 75.1328H249.645ZM245.218 62.023C242.161 58.7768 237.846 57.3078 232.64 57.3078V61.7078C237.017 61.7078 240.02 62.9211 242.015 65.0395L245.218 62.023ZM232.64 57.3078C227.432 57.3078 223.111 58.7772 220.031 62.0148L223.218 65.0477C225.242 62.9207 228.264 61.7078 232.64 61.7078V57.3078ZM220.023 62.023C216.989 65.2447 215.635 69.731 215.635 75.1328H220.035C220.035 70.4305 221.208 67.1824 223.226 65.0395L220.023 62.023ZM195.973 75.1328C195.973 65.5983 199.043 58.7303 204.932 54.1324L202.224 50.6645C195.039 56.2749 191.573 64.5631 191.573 75.1328H195.973ZM204.936 54.1291C210.924 49.4292 220.04 46.9031 232.64 46.9031V42.5031C219.563 42.5031 209.304 45.1072 202.219 50.6678L204.936 54.1291ZM232.64 46.9031C245.24 46.9031 254.356 49.4292 260.344 54.1291L263.061 50.6678C255.976 45.1072 245.718 42.5031 232.64 42.5031V46.9031ZM260.349 54.1324C266.237 58.7303 269.307 65.5983 269.307 75.1328H273.707C273.707 64.5631 270.241 56.2749 263.057 50.6645L260.349 54.1324ZM269.307 75.1328C269.307 84.6387 266.238 91.5107 260.344 96.1366L263.061 99.5978C270.24 93.9632 273.707 85.679 273.707 75.1328H269.307ZM260.349 96.1332C254.36 100.81 245.242 103.323 232.64 103.323V107.723C245.716 107.723 255.972 105.133 263.057 99.6012L260.349 96.1332ZM232.64 103.323C220.039 103.323 210.92 100.81 204.932 96.1332L202.224 99.6012C209.308 105.133 219.564 107.723 232.64 107.723V103.323ZM204.936 96.1366C199.042 91.5107 195.973 84.6387 195.973 75.1328H191.573C191.573 85.679 195.04 93.9632 202.219 99.5978L204.936 96.1366ZM280.726 104H278.526C278.526 105.215 279.511 106.2 280.726 106.2V104ZM280.726 46.2266V44.0266C279.511 44.0266 278.526 45.0115 278.526 46.2266H280.726ZM307.21 46.2266L309.038 45.0018C308.629 44.3923 307.944 44.0266 307.21 44.0266V46.2266ZM329.515 79.5078L327.688 80.7326C328.227 81.5371 329.229 81.8944 330.155 81.6126C331.082 81.3309 331.715 80.4763 331.715 79.5078H329.515ZM329.515 46.2266V44.0266C328.3 44.0266 327.315 45.0115 327.315 46.2266H329.515ZM351.195 46.2266H353.395C353.395 45.0115 352.41 44.0266 351.195 44.0266V46.2266ZM351.195 104V106.2C352.41 106.2 353.395 105.215 353.395 104H351.195ZM326.078 104L324.29 105.282C324.703 105.858 325.368 106.2 326.078 106.2V104ZM301.82 70.1719L303.608 68.8898C303.051 68.1132 302.056 67.785 301.146 68.0774C300.237 68.3699 299.62 69.2163 299.62 70.1719H301.82ZM301.82 104V106.2C303.035 106.2 304.02 105.215 304.02 104H301.82ZM282.926 104V46.2266H278.526V104H282.926ZM280.726 48.4266H307.21V44.0266H280.726V48.4266ZM305.383 47.4514L327.688 80.7326L331.343 78.283L309.038 45.0018L305.383 47.4514ZM331.715 79.5078V46.2266H327.315V79.5078H331.715ZM329.515 48.4266H351.195V44.0266H329.515V48.4266ZM348.995 46.2266V104H353.395V46.2266H348.995ZM351.195 101.8H326.078V106.2H351.195V101.8ZM327.865 102.718L303.608 68.8898L300.032 71.4539L324.29 105.282L327.865 102.718ZM299.62 70.1719V104H304.02V70.1719H299.62ZM301.82 101.8H280.726V106.2H301.82V101.8ZM363.851 104H361.651C361.651 105.215 362.636 106.2 363.851 106.2V104ZM363.851 46.2266V44.0266C362.636 44.0266 361.651 45.0115 361.651 46.2266H363.851ZM425.062 46.2266H427.262C427.262 45.0115 426.277 44.0266 425.062 44.0266V46.2266ZM425.062 60.4063V62.6063C426.277 62.6063 427.262 61.6213 427.262 60.4063H425.062ZM386.234 60.4063V58.2062C385.019 58.2062 384.034 59.1912 384.034 60.4063H386.234ZM386.234 67.2813H384.034C384.034 68.4963 385.019 69.4813 386.234 69.4813V67.2813ZM417.679 67.2813H419.879C419.879 66.0662 418.894 65.0812 417.679 65.0812V67.2813ZM417.679 81.5391V83.7391C418.894 83.7391 419.879 82.7541 419.879 81.5391H417.679ZM386.234 81.5391V79.3391C385.019 79.3391 384.034 80.324 384.034 81.5391H386.234ZM386.234 89.1172H384.034C384.034 90.3322 385.019 91.3172 386.234 91.3172V89.1172ZM426.976 89.1172H429.176C429.176 87.9022 428.191 86.9172 426.976 86.9172V89.1172ZM426.976 104V106.2C428.191 106.2 429.176 105.215 429.176 104H426.976ZM366.051 104V46.2266H361.651V104H366.051ZM363.851 48.4266H425.062V44.0266H363.851V48.4266ZM422.862 46.2266V60.4063H427.262V46.2266H422.862ZM425.062 58.2062H386.234V62.6063H425.062V58.2062ZM384.034 60.4063V67.2813H388.434V60.4063H384.034ZM386.234 69.4813H417.679V65.0812H386.234V69.4813ZM415.479 67.2813V81.5391H419.879V67.2813H415.479ZM417.679 79.3391H386.234V83.7391H417.679V79.3391ZM384.034 81.5391V89.1172H388.434V81.5391H384.034ZM386.234 91.3172H426.976V86.9172H386.234V91.3172ZM424.776 89.1172V104H429.176V89.1172H424.776ZM426.976 101.8H363.851V106.2H426.976V101.8ZM434.085 104H431.885C431.885 105.215 432.87 106.2 434.085 106.2V104ZM434.085 46.2266V44.0266C432.87 44.0266 431.885 45.0115 431.885 46.2266H434.085ZM460.57 46.2266L462.397 45.0018C461.989 44.3923 461.303 44.0266 460.57 44.0266V46.2266ZM482.874 79.5078L481.047 80.7326C481.586 81.5371 482.588 81.8944 483.514 81.6126C484.441 81.3309 485.074 80.4763 485.074 79.5078H482.874ZM482.874 46.2266V44.0266C481.659 44.0266 480.674 45.0115 480.674 46.2266H482.874ZM504.554 46.2266H506.754C506.754 45.0115 505.769 44.0266 504.554 44.0266V46.2266ZM504.554 104V106.2C505.769 106.2 506.754 105.215 506.754 104H504.554ZM479.437 104L477.649 105.282C478.062 105.858 478.728 106.2 479.437 106.2V104ZM455.179 70.1719L456.967 68.8898C456.41 68.1132 455.416 67.785 454.506 68.0774C453.596 68.3699 452.979 69.2163 452.979 70.1719H455.179ZM455.179 104V106.2C456.394 106.2 457.379 105.215 457.379 104H455.179ZM436.285 104V46.2266H431.885V104H436.285ZM434.085 48.4266H460.57V44.0266H434.085V48.4266ZM458.742 47.4514L481.047 80.7326L484.702 78.283L462.397 45.0018L458.742 47.4514ZM485.074 79.5078V46.2266H480.674V79.5078H485.074ZM482.874 48.4266H504.554V44.0266H482.874V48.4266ZM502.354 46.2266V104H506.754V46.2266H502.354ZM504.554 101.8H479.437V106.2H504.554V101.8ZM481.225 102.718L456.967 68.8898L453.391 71.4539L477.649 105.282L481.225 102.718ZM452.979 70.1719V104H457.379V70.1719H452.979ZM455.179 101.8H434.085V106.2H455.179V101.8ZM531.937 104H529.737C529.737 105.215 530.722 106.2 531.937 106.2V104ZM531.937 60.875H534.137C534.137 59.66 533.152 58.675 531.937 58.675V60.875ZM511.038 60.875H508.838C508.838 62.09 509.823 63.075 511.038 63.075V60.875ZM511.038 46.2266V44.0266C509.823 44.0266 508.838 45.0115 508.838 46.2266H511.038ZM575.296 46.2266H577.496C577.496 45.0115 576.511 44.0266 575.296 44.0266V46.2266ZM575.296 60.875V63.075C576.511 63.075 577.496 62.09 577.496 60.875H575.296ZM554.32 60.875V58.675C553.105 58.675 552.12 59.66 552.12 60.875H554.32ZM554.32 104V106.2C555.535 106.2 556.52 105.215 556.52 104H554.32ZM534.137 104V60.875H529.737V104H534.137ZM531.937 58.675H511.038V63.075H531.937V58.675ZM513.238 60.875V46.2266H508.838V60.875H513.238ZM511.038 48.4266H575.296V44.0266H511.038V48.4266ZM573.096 46.2266V60.875H577.496V46.2266H573.096ZM575.296 58.675H554.32V63.075H575.296V58.675ZM552.12 60.875V104H556.52V60.875H552.12ZM554.32 101.8H531.937V106.2H554.32V101.8Z" fill="white" mask="url(#path-3-outside-2_0_1)"/>
</g>
</g>
<defs>
<filter id="filter0_d_0_1" x="0.899998" y="0.803123" width="618.296" height="176.397" filterUnits="userSpaceOnUse" color-interpolation-filters="sRGB">
<feFlood flood-opacity="0" result="BackgroundImageFix"/>
<feColorMatrix in="SourceAlpha" type="matrix" values="0 0 0 0 0 0 0 0 0 0 0 0 0 0 0 0 0 0 127 0" result="hardAlpha"/>
<feOffset/>
<feGaussianBlur stdDeviation="21.95"/>
<feComposite in2="hardAlpha" operator="out"/>
<feColorMatrix type="matrix" values="0 0 0 0 0.858824 0 0 0 0 0.682353 0 0 0 0 1 0 0 0 0.3 0"/>
<feBlend mode="normal" in2="BackgroundImageFix" result="effect1_dropShadow_0_1"/>
<feBlend mode="normal" in="SourceGraphic" in2="effect1_dropShadow_0_1" result="shape"/>
</filter>
<filter id="filter1_d_0_1" x="38" y="38.2306" width="82.2578" height="101.87" filterUnits="userSpaceOnUse" color-interpolation-filters="sRGB">
<feFlood flood-opacity="0" result="BackgroundImageFix"/>
<feColorMatrix in="SourceAlpha" type="matrix" values="0 0 0 0 0 0 0 0 0 0 0 0 0 0 0 0 0 0 127 0" result="hardAlpha"/>
<feOffset/>
<feGaussianBlur stdDeviation="3.4"/>
<feComposite in2="hardAlpha" operator="out"/>
<feColorMatrix type="matrix" values="0 0 0 0 0.694118 0 0 0 0 0.305882 0 0 0 0 1 0 0 0 1 0"/>
<feBlend mode="normal" in2="BackgroundImageFix" result="effect1_dropShadow_0_1"/>
<feBlend mode="normal" in="SourceGraphic" in2="effect1_dropShadow_0_1" result="shape"/>
</filter>
<filter id="filter2_d_0_1" x="111.035" y="37.9031" width="471.061" height="74.4203" filterUnits="userSpaceOnUse" color-interpolation-filters="sRGB">
<feFlood flood-opacity="0" result="BackgroundImageFix"/>
<feColorMatrix in="SourceAlpha" type="matrix" values="0 0 0 0 0 0 0 0 0 0 0 0 0 0 0 0 0 0 127 0" result="hardAlpha"/>
<feOffset/>
<feGaussianBlur stdDeviation="3.4"/>
<feComposite in2="hardAlpha" operator="out"/>
<feColorMatrix type="matrix" values="0 0 0 0 0.694118 0 0 0 0 0.305882 0 0 0 0 1 0 0 0 1 0"/>
<feBlend mode="normal" in2="BackgroundImageFix" result="effect1_dropShadow_0_1"/>
<feBlend mode="normal" in="SourceGraphic" in2="effect1_dropShadow_0_1" result="shape"/>
</filter>
</defs>
</svg>
